<?xml version="1.0" encoding="UTF-8" standalone="no"?>
<svg
   xmlns:dc="http://purl.org/dc/elements/1.1/"
   xmlns:cc="http://creativecommons.org/ns#"
   xmlns:rdf="http://www.w3.org/1999/02/22-rdf-syntax-ns#"
   xmlns:svg="http://www.w3.org/2000/svg"
   xmlns="http://www.w3.org/2000/svg"
   viewBox="0 0 380 418.66666"
   height="418.66666"
   width="380"
   xml:space="preserve"
   id="svg2"
   version="1.1"><metadata
     id="metadata8"><rdf:RDF><cc:Work
         rdf:about=""><dc:format>image/svg+xml</dc:format><dc:type
           rdf:resource="http://purl.org/dc/dcmitype/StillImage" /></cc:Work></rdf:RDF></metadata><defs
     id="defs6" /><g
     transform="matrix(1.3333333,0,0,-1.3333333,0,418.66667)"
     id="g10"><g
       transform="scale(0.1)"
       id="g12"><path
         id="path14"
         style="fill:#afa87a;fill-opacity:1;fill-rule:evenodd;stroke:none"
         d="M 9.05469,3135.97 H 2843.7 V 638.078 c 0,-48.316 -14.34,-115.426 -59.67,-132.133 L 1419.98,2.95313 99.3398,494.91 C 46.4883,514.609 9.05469,581.652 9.05469,638.078 V 3135.97" /><path
         id="path16"
         style="fill:#000000;fill-opacity:1;fill-rule:evenodd;stroke:none"
         d="M 74.8125,1669.63 H 1396.23 V 105.25 l -1150.906,422 C 91.8555,583.523 74.8125,610.922 74.8125,748.918 v 920.712" /><path
         id="path18"
         style="fill:#000000;fill-opacity:1;fill-rule:evenodd;stroke:none"
         d="M 2774,1669.63 H 1452.58 V 105.25 l 1150.91,422 C 2755.75,583.082 2774,627.84 2774,748.918 v 920.712" /><path
         id="path20"
         style="fill:#000000;fill-opacity:1;fill-rule:evenodd;stroke:none"
         d="m 1451.61,3073.43 h 1208.85 c 68.11,0 116.9,-41.85 116.9,-107.8 V 1757.48 H 1451.61 v 1315.95" /><path
         id="path22"
         style="fill:#000000;fill-opacity:1;fill-rule:evenodd;stroke:none"
         d="M 1401.97,3073.43 H 193.125 c -68.113,0 -116.8984,-41.85 -116.8984,-107.8 V 1757.48 H 1401.97 v 1315.95" /><path
         id="path24"
         style="fill:#aca078;fill-opacity:1;fill-rule:nonzero;stroke:none"
         d="m 2584.04,2224.51 c 0.49,-1.69 0.84,-3.47 1.03,-5.29 l 21.94,-199.97 c 1.8,-16.97 -10.49,-32.22 -27.47,-34.02 -8.11,-0.85 -15.85,1.52 -21.9,6.08 l -0.01,-0.03 -87.23,65.77 c 3.45,-19.21 7.07,-38.28 10.68,-57.33 8.4,-44.53 16.84,-89.09 23.41,-135.58 2.33,-16.91 -9.48,-32.53 -26.39,-34.86 -5.03,-0.7 -9.94,-0.14 -14.44,1.43 -28.79,8.77 -60.3,16.12 -91.81,23.43 l -0.12,0.02 v -0.02 c -32.46,7.56 -64.94,15.11 -97.18,24.99 -10.09,3.1 -17.43,10.88 -20.39,20.24 l -0.07,-0.03 -33.63,106.52 -10.62,-6.04 -0.21,-3.12 -0.05,-0.6 c -3.49,-52.67 -8.45,-126.38 -34.19,-185.12 -6.81,-15.63 -25.03,-22.8 -40.66,-15.98 -3.69,1.61 -6.89,3.84 -9.56,6.53 h -0.01 c -18.68,18.7 -37.7,38.94 -56.69,59.14 -16.93,18.03 -33.89,36.08 -50.08,52.46 -21.7,1.09 -39.86,7.45 -53.94,19.86 -18.99,16.72 -28.44,42.15 -26.7,77.74 -57.8,-11.55 -115.36,-6.19 -163.04,38.93 -32.25,30.53 -34.42,70.38 -36.61,110.86 -1.26,23.27 -2.55,46.87 -11.02,62.98 -11.15,21.17 -32.18,39.8 -53.04,58.27 -32.43,28.69 -64.59,57.18 -76.32,102.02 -11.18,42.79 -18.07,99.32 -6.9,151.26 9,41.86 29.32,80.8 67.43,108.35 l 113.57,82.16 c 0.17,69.7 0.43,139.36 -1.92,208.85 -0.99,29.19 6.2,55.14 19.18,76.66 12.06,19.97 29.04,36.04 49.06,47.25 19.59,10.97 42.28,17.33 66.19,18.13 29.62,0.99 61,-6.56 90.44,-24.34 62.25,-37.58 120.23,-78.65 174.41,-123.53 16.3,12.21 33.19,21.71 50.28,28.74 47.34,19.52 96.02,20.21 139,8.43 43.2,-11.86 80.86,-36.44 105.83,-67.3 9.82,-12.11 17.8,-25.3 23.49,-39.13 l 97.48,-236.38 c 30.01,-65.17 26.65,-130.09 -3.08,-194.25 -15.45,-33.37 -38.19,-66.4 -67.11,-99.01 11.01,-2.54 20.94,-6.24 29.59,-10.88 16.39,-8.77 28.69,-20.96 36.06,-35.53 7.77,-15.37 9.91,-32.8 5.51,-51.2 -0.6,-2.5 -1.33,-5.03 -2.19,-7.56" /><path
         id="path26"
         style="fill:#ffffff;fill-opacity:1;fill-rule:nonzero;stroke:none"
         d="m 1966.01,2997.14 -3.2,1.95 c -18.85,11.39 -38.43,16.23 -56.54,15.63 -13.65,-0.46 -26.63,-4.11 -37.86,-10.39 -10.81,-6.05 -19.92,-14.64 -26.3,-25.21 -7.11,-11.79 -11.04,-26.26 -10.48,-42.78 0.3,-8.85 0.57,-17.7 0.78,-26.56 17.55,19.19 38.77,37.4 62.45,52.75 l 1.24,0.81 0.09,0.05 c 23.6,15.15 47.3,26.41 69.82,33.75" /><path
         id="path28"
         style="fill:#ffffff;fill-opacity:1;fill-rule:nonzero;stroke:none"
         d="m 2031.23,2862.49 -6.91,-0.63 c -26.39,-2.77 -50.6,-9.68 -65.72,-20.07 -18.12,-12.43 -36.31,-31.56 -51.74,-53.72 l -0.11,-0.15 c 25,6.53 52.48,18.73 78.38,35.51 l 0.53,0.35 c 18.39,11.99 33.69,25.21 45.57,38.71" /><path
         id="path30"
         style="fill:#ffffff;fill-opacity:1;fill-rule:nonzero;stroke:none"
         d="m 1847.49,2786 c 5.65,10.46 11.94,20.66 18.69,30.36 18.64,26.77 41.3,50.35 64.53,66.28 21.94,15.06 54.43,24.82 88.58,28.4 13.06,1.38 26.53,1.86 39.85,1.42 1.75,8.74 0.98,16.17 -2.53,21.59 l -0.2,0.31 c -5.95,8.78 -20.19,12.33 -39.11,10.76 -25.52,-2.12 -56.73,-13.62 -88.75,-34.38 l -1.26,-0.81 -0.03,-0.01 c -32.05,-21.05 -58.13,-48.15 -73.42,-74.03 -11.82,-20.03 -16.85,-37.15 -11.42,-45.53 1.13,-1.75 2.85,-3.2 5.07,-4.36" /><path
         id="path32"
         style="fill:#ffffff;fill-opacity:1;fill-rule:nonzero;stroke:none"
         d="m 2102.86,2856.45 c -17.02,-29.74 -45.63,-59.9 -84.04,-84.81 l -1.26,-0.82 -0.13,-0.06 c -41,-26.31 -86.27,-43.46 -124.76,-48.42 -6.53,-0.85 -12.93,-1.34 -19.14,-1.49 -1.15,-3.88 -2.15,-7.74 -2.99,-11.55 -5.08,-23.19 -4.14,-44.48 5.98,-59.21 l -0.02,-0.01 c 2.91,-4.17 6.75,-8.04 11.57,-11.4 75.83,-52.83 161.41,-99.5 242.75,-143.86 l 42.11,-23.01 c -3.45,48.15 -7.61,100.63 -12.1,153.19 -6.24,73.23 -12.88,143.75 -18.84,200.57 -0.38,3.71 -1.74,7.12 -3.83,10.18 -6.31,9.19 -19.15,16.08 -35.3,20.7" /><path
         id="path34"
         style="fill:#ffffff;fill-opacity:1;fill-rule:nonzero;stroke:none"
         d="m 2447.13,2347.41 c 35.46,35.79 62.41,71.6 78.88,107.18 22.11,47.75 24.88,95.51 3.1,142.68 l -0.92,2.02 -97.55,236.55 c -3.36,8.18 -8.23,16.16 -14.29,23.64 -17.22,21.28 -43.58,38.35 -74.1,46.72 -30.71,8.41 -65.5,7.92 -99.32,-6.02 -8.59,-3.54 -17.17,-7.98 -25.63,-13.37 75.24,-68.45 142.7,-145.13 203.68,-231.05 45.87,-64.58 49.05,-214.07 26.15,-308.35" /><path
         id="path36"
         style="fill:#ffffff;fill-opacity:1;fill-rule:nonzero;stroke:none"
         d="m 1771.81,2649.18 -77.25,-55.88 c -24.11,-17.44 -37.22,-43.11 -43.23,-71.09 -8.88,-41.3 -3.06,-87.53 6.19,-122.92 6.95,-26.6 32.07,-48.86 57.42,-71.29 25.19,-22.3 50.56,-44.77 66.85,-75.7 14.75,-28.01 16.42,-58.53 18.03,-88.64 1.52,-28.07 3.03,-55.74 17.26,-69.2 50.92,-48.18 133.42,-21.48 205.73,10.31 -106.42,29.25 -218.31,125.25 -233.16,231.33 -14.54,103.86 -17.43,208.41 -17.84,313.08" /><path
         id="path38"
         style="fill:#ffffff;fill-opacity:1;fill-rule:nonzero;stroke:none"
         d="m 2471.31,2133.88 66.42,-50.09 -8.43,76.84 c -19.38,-8.84 -38.73,-17.74 -57.99,-26.75" /><path
         id="path40"
         style="fill:#ffffff;fill-opacity:1;fill-rule:nonzero;stroke:none"
         d="m 2275.8,2036.36 32.42,-102.7 c 24.57,-6.91 51.08,-13.07 77.55,-19.23 v -0.02 c 16.75,-3.9 33.53,-7.8 50.19,-11.99 -4.89,28.98 -10.28,57.46 -15.65,85.92 -6.96,36.86 -13.93,73.75 -19.86,111.71 -31.21,-15.21 -62.16,-30.78 -92.77,-46.78 -10.64,-5.57 -21.27,-11.2 -31.88,-16.91" /><path
         id="path42"
         style="fill:#ffffff;fill-opacity:1;fill-rule:nonzero;stroke:none"
         d="m 2165.45,2045.51 c 4.25,3.78 9.28,7.24 15.09,10.53 6.05,3.42 12.92,6.6 20.73,9.85 25.84,14.45 51.79,28.46 77.85,42.09 75.79,39.63 151.29,75.6 226.65,109.9 11.93,10.69 18.46,20.35 20.41,28.48 0.85,3.52 0.57,6.61 -0.67,9.07 -1.63,3.23 -5.02,6.29 -9.9,8.91 -12.68,6.79 -32.34,9.58 -57.39,6.33 l -0.25,1.99 c -8.17,-7.33 -16.62,-14.63 -25.36,-21.91 -37.92,-31.6 -83.55,-59.34 -131.59,-84.52 l -0.89,-0.52 c -34.2,-19.81 -66.56,-35.6 -97.61,-47.14 -15.88,-7.24 -31.64,-14.3 -47.1,-21.23 -18.99,-8.51 -37.43,-16.79 -63.56,-28.97 -0.78,-0.36 -1.56,-0.69 -2.35,-0.98 -27.12,-12.64 -56.72,-26.44 -87.33,-37.79 -5.45,-27.77 -3.99,-43.82 3.18,-50.13 7.79,-6.87 25.68,-6.51 51.4,-0.49 35.91,23.29 72.16,45.38 108.69,66.53" /><path
         id="path44"
         style="fill:#ffffff;fill-opacity:1;fill-rule:nonzero;stroke:none"
         d="m 2090.6,1927.31 22.89,-24.27 19.98,-21.21 c 6.01,26.21 9.35,54.03 11.57,79.72 -18.22,-11.12 -36.37,-22.53 -54.44,-34.24" /><path
         id="path46"
         style="fill:#ffffff;fill-opacity:1;fill-rule:nonzero;stroke:none"
         d="m 2270.02,2219.71 c 45.36,26.45 81.83,60.79 104.39,104.93 29.34,57.42 37.93,236.54 -3.78,295.3 -54.28,76.49 -113.49,144.95 -179.02,206.53 6.22,-59.7 12.77,-128.93 18.6,-197.41 5.78,-67.58 11.13,-137.19 15.2,-199.39 0.86,-13.64 -9.51,-25.38 -23.14,-26.24 -4.95,-0.31 -9.64,0.86 -13.65,3.11 l -0.01,-0.01 c -30.05,16.89 -55.51,30.79 -81.41,44.9 -83.09,45.32 -170.53,93 -247.42,146.57 -9.75,6.8 -17.74,14.95 -24.03,24.11 l -0.08,0.11 -0.01,-0.01 -2.06,3.13 c 0.8,-93.97 4.29,-187.76 17.31,-280.77 13.47,-96.12 144.69,-186.32 233.49,-187.15 29.7,-0.28 60.96,5.98 94.62,18.33 30.5,13.93 61.34,28.51 91,43.96" /><path
         id="path48"
         style="fill:#aca078;fill-opacity:1;fill-rule:nonzero;stroke:none"
         d="m 1216.09,793.605 c 0.49,-1.73 0.84,-3.535 1.05,-5.39 l 22.33,-203.613 c 1.83,-17.278 -10.68,-32.801 -27.96,-34.629 -8.27,-0.871 -16.15,1.539 -22.3,6.183 l -0.02,-0.023 -88.81,66.965 c 3.51,-19.563 7.19,-38.973 10.87,-58.371 8.55,-45.348 17.15,-90.719 23.84,-138.047 2.37,-17.215 -9.66,-33.129 -26.87,-35.504 -5.13,-0.707 -10.13,-0.137 -14.7,1.465 -29.32,8.922 -61.4,16.406 -93.48,23.851 l -0.122,0.028 v -0.028 c -33.055,7.699 -66.133,15.387 -98.945,25.446 -10.274,3.156 -17.758,11.082 -20.762,20.609 l -0.074,-0.024 -34.242,108.45 -10.817,-6.149 -0.215,-3.179 -0.05,-0.606 c -3.547,-53.625 -8.606,-128.68 -34.805,-188.492 -6.945,-15.914 -25.496,-23.207 -41.41,-16.266 -3.75,1.641 -7.004,3.91 -9.731,6.649 h -0.015 c -19.016,19.031 -38.379,39.644 -57.711,60.215 -17.243,18.351 -34.508,36.738 -50.993,53.414 -22.097,1.105 -40.585,7.586 -54.921,20.214 -19.336,17.024 -28.954,42.926 -27.184,79.157 -58.855,-11.758 -117.465,-6.293 -166.004,39.644 -32.84,31.086 -35.047,71.66 -37.281,112.867 -1.278,23.704 -2.59,47.731 -11.219,64.129 -11.348,21.555 -32.766,40.524 -54.008,59.328 -33.015,29.215 -65.765,58.219 -77.707,103.879 -11.383,43.571 -18.398,101.123 -7.027,154.013 9.164,42.62 29.863,82.26 68.656,110.32 l 115.645,83.65 c 0.164,70.97 0.429,141.9 -1.953,212.65 -1.012,29.72 6.308,56.15 19.519,78.06 12.281,20.33 29.574,36.69 49.957,48.11 19.938,11.17 43.051,17.64 67.395,18.45 30.152,1.01 62.105,-6.67 92.078,-24.77 63.383,-38.27 122.422,-80.08 177.59,-125.78 16.593,12.43 33.785,22.09 51.191,29.27 48.195,19.86 97.77,20.57 141.527,8.56 43.988,-12.06 82.328,-37.09 107.758,-68.52 9.99,-12.33 18.12,-25.75 23.91,-39.84 l 99.25,-240.68 c 30.56,-66.34 27.14,-132.45 -3.12,-197.78 -15.74,-33.974 -38.89,-67.607 -68.34,-100.814 11.21,-2.586 21.32,-6.348 30.13,-11.067 16.69,-8.937 29.21,-21.339 36.72,-36.183 7.91,-15.649 10.08,-33.395 5.6,-52.125 -0.61,-2.551 -1.35,-5.125 -2.22,-7.696" /><path
         id="path50"
         style="fill:#ff0000;fill-opacity:1;fill-rule:nonzero;stroke:none"
         d="m 586.816,1580.28 -3.257,1.99 c -19.196,11.59 -39.137,16.53 -57.575,15.91 -13.894,-0.47 -27.109,-4.18 -38.546,-10.58 -11.004,-6.15 -20.282,-14.9 -26.782,-25.67 -7.23,-12 -11.23,-26.73 -10.664,-43.55 0.305,-9.01 0.582,-18.02 0.797,-27.05 17.871,19.54 39.477,38.08 63.586,53.72 l 1.258,0.81 0.09,0.05 c 24.027,15.43 48.16,26.9 71.093,34.37" /><path
         id="path52"
         style="fill:#ff0000;fill-opacity:1;fill-rule:nonzero;stroke:none"
         d="m 653.227,1443.18 -7.043,-0.64 c -26.868,-2.82 -51.52,-9.86 -66.918,-20.43 -18.45,-12.66 -36.961,-32.14 -52.68,-54.7 l -0.113,-0.15 c 25.461,6.65 53.441,19.06 79.804,36.15 l 0.543,0.36 c 18.727,12.2 34.301,25.67 46.407,39.41" /><path
         id="path54"
         style="fill:#ff0000;fill-opacity:1;fill-rule:nonzero;stroke:none"
         d="m 466.137,1365.3 c 5.754,10.65 12.152,21.04 19.031,30.91 18.98,27.26 42.051,51.27 65.703,67.49 22.34,15.34 55.418,25.27 90.188,28.92 13.304,1.4 27.019,1.89 40.574,1.43 1.781,8.9 1,16.47 -2.57,21.99 l -0.204,0.32 c -6.058,8.93 -20.558,12.55 -39.82,10.95 -25.984,-2.15 -57.766,-13.87 -90.363,-34.99 l -1.289,-0.84 -0.024,-0.01 c -32.636,-21.43 -59.191,-49.02 -74.754,-75.37 -12.039,-20.4 -17.164,-37.83 -11.636,-46.36 1.16,-1.78 2.906,-3.26 5.164,-4.44" /><path
         id="path56"
         style="fill:#ff0000;fill-opacity:1;fill-rule:nonzero;stroke:none"
         d="m 726.148,1437.04 c -17.328,-30.28 -46.457,-61 -85.566,-86.36 l -1.277,-0.83 -0.141,-0.06 c -41.734,-26.8 -87.84,-44.25 -127.027,-49.31 -6.649,-0.86 -13.16,-1.37 -19.485,-1.52 -1.175,-3.95 -2.183,-7.87 -3.043,-11.76 -5.171,-23.61 -4.214,-45.28 6.082,-60.27 l -0.007,-0.02 c 2.949,-4.25 6.863,-8.19 11.773,-11.61 77.211,-53.79 164.348,-101.3 247.164,-146.48 l 42.875,-23.42 c -3.512,49.02 -7.75,102.46 -12.32,155.97 -6.348,74.56 -13.113,146.36 -19.184,204.21 -0.39,3.79 -1.765,7.26 -3.898,10.38 -6.426,9.35 -19.5,16.37 -35.946,21.08" /><path
         id="path58"
         style="fill:#ff0000;fill-opacity:1;fill-rule:nonzero;stroke:none"
         d="m 1076.68,918.738 c 36.11,36.434 63.54,72.895 80.32,109.132 22.51,48.61 25.33,97.24 3.15,145.26 l -0.93,2.06 -99.33,240.86 c -3.42,8.33 -8.38,16.45 -14.55,24.07 -17.53,21.67 -44.38,39.04 -75.445,47.56 -31.262,8.57 -66.692,8.07 -101.122,-6.12 -8.753,-3.61 -17.488,-8.13 -26.097,-13.61 76.609,-69.7 145.289,-147.77 207.384,-235.26 46.7,-65.75 49.94,-217.96 26.62,-313.952" /><path
         id="path60"
         style="fill:#ff0000;fill-opacity:1;fill-rule:nonzero;stroke:none"
         d="m 389.086,1225.99 -78.652,-56.9 c -24.563,-17.75 -37.903,-43.89 -44.02,-72.38 -9.039,-42.05 -3.121,-89.12 6.293,-125.151 7.082,-27.086 32.664,-49.754 58.473,-72.586 25.648,-22.707 51.48,-45.586 68.066,-77.075 15.02,-28.523 16.723,-59.593 18.363,-90.25 1.539,-28.585 3.079,-56.757 17.567,-70.46 51.847,-49.059 135.851,-21.875 209.469,10.5 C 536.293,701.457 422.367,799.207 407.246,907.215 392.445,1012.96 389.5,1119.42 389.086,1225.99" /><path
         id="path62"
         style="fill:#ff0000;fill-opacity:1;fill-rule:nonzero;stroke:none"
         d="m 1101.3,701.32 67.64,-51.004 -8.58,78.239 c -19.75,-8.996 -39.45,-18.059 -59.06,-27.235" /><path
         id="path64"
         style="fill:#ff0000;fill-opacity:1;fill-rule:nonzero;stroke:none"
         d="M 902.234,602.031 935.25,497.457 c 25.012,-7.031 52.012,-13.305 78.96,-19.578 v -0.024 c 17.06,-3.964 34.13,-7.937 51.09,-12.203 -4.96,29.504 -10.46,58.496 -15.92,87.485 -7.09,37.523 -14.18,75.082 -20.23,113.742 -31.767,-15.488 -63.283,-31.34 -94.455,-47.633 -10.828,-5.664 -21.656,-11.406 -32.461,-17.215" /><path
         id="path66"
         style="fill:#ff0000;fill-opacity:1;fill-rule:nonzero;stroke:none"
         d="m 789.883,611.348 c 4.328,3.847 9.453,7.371 15.359,10.715 6.16,3.48 13.164,6.726 21.113,10.031 26.305,14.719 52.731,28.98 79.262,42.859 77.176,40.348 154.043,76.977 230.773,111.899 12.15,10.878 18.8,20.722 20.79,28.988 0.85,3.586 0.58,6.738 -0.69,9.238 -1.66,3.297 -5.11,6.414 -10.08,9.074 -12.91,6.918 -32.93,9.758 -58.43,6.45 l -0.26,2.023 c -8.32,-7.461 -16.92,-14.895 -25.82,-22.305 -38.61,-32.183 -85.064,-60.425 -133.982,-86.058 l -0.906,-0.532 c -34.824,-20.167 -67.778,-36.246 -99.395,-47.996 -16.164,-7.375 -32.207,-14.566 -47.945,-21.621 -19.332,-8.66 -38.113,-17.09 -64.719,-29.492 -0.793,-0.367 -1.59,-0.711 -2.394,-1 -27.606,-12.871 -57.754,-26.918 -88.914,-38.48 -5.555,-28.27 -4.067,-44.614 3.23,-51.036 7.938,-6.996 26.148,-6.628 52.336,-0.496 36.562,23.704 73.48,46.207 110.672,67.739" /><path
         id="path68"
         style="fill:#ff0000;fill-opacity:1;fill-rule:nonzero;stroke:none"
         d="m 713.664,490.992 23.313,-24.711 20.347,-21.59 c 6.117,26.68 9.516,55.012 11.774,81.161 -18.555,-11.321 -37.028,-22.93 -55.434,-34.86" /><path
         id="path70"
         style="fill:#ff0000;fill-opacity:1;fill-rule:nonzero;stroke:none"
         d="m 896.352,788.719 c 46.179,26.918 83.324,61.89 106.288,106.836 29.88,58.457 38.62,240.835 -3.847,300.665 -55.262,77.88 -115.555,147.58 -182.281,210.28 6.336,-60.77 13,-131.26 18.945,-201 5.883,-68.8 11.336,-139.68 15.473,-203.01 0.871,-13.885 -9.68,-25.849 -23.563,-26.717 -5.035,-0.32 -9.804,0.868 -13.894,3.165 l -0.012,-0.012 c -30.594,17.203 -56.52,31.354 -82.895,45.724 -84.597,46.14 -173.625,94.68 -251.914,149.23 -9.929,6.93 -18.058,15.22 -24.468,24.55 l -0.075,0.11 -0.015,-0.01 -2.094,3.19 c 0.809,-95.68 4.367,-191.18 17.621,-285.872 13.715,-97.875 147.32,-189.715 237.734,-190.563 30.243,-0.277 62.071,6.098 96.348,18.668 31.047,14.188 62.445,29.027 92.649,44.766" /><path
         id="path72"
         style="fill:#aea177;fill-opacity:1;fill-rule:evenodd;stroke:none"
         d="m 665.379,3015.47 c 108.023,1.13 543.431,36.53 556.421,-537.2 12.49,-551.41 -361.952,-541.25 -483.167,-541.25 h -545.32 v 223.83 h 81.386 v 614.51 h -81.386 v 236.05 z m -48.828,-219.75 h 101.742 c 47.918,0 129.457,-132.22 126.16,-321.48 -3.301,-189.25 -61.023,-325.6 -126.16,-325.6 H 616.551 v 647.08" /><path
         id="path74"
         style="fill:#aea177;fill-opacity:1;fill-rule:evenodd;stroke:none"
         d="m 1593.27,1587.03 h 732.53 c 118.08,0 248.6,-116.38 240.11,-260.45 -5.23,-88.71 -39.34,-160.06 -138.37,-227.9 118.01,-67.83 199.07,-151.66 183.14,-276.742 C 2593.96,690.625 2466.31,545.199 2325.8,545.199 h -732.53 v 227.903 h 89.53 v 594.168 h -89.53 z m 431.38,-211.63 h 134.3 c 92.4,0 92.38,-179.06 0,-179.06 h -134.3 z m 4.07,-397.107 h 150.32 c 103.45,0 103.41,-205.191 0,-205.191 h -150.32 v 205.191" /></g></g></svg>