<?xml version="1.0" encoding="UTF-8" standalone="no"?>
<svg
   xmlns:dc="http://purl.org/dc/elements/1.1/"
   xmlns:cc="http://creativecommons.org/ns#"
   xmlns:rdf="http://www.w3.org/1999/02/22-rdf-syntax-ns#"
   xmlns:svg="http://www.w3.org/2000/svg"
   xmlns="http://www.w3.org/2000/svg"
   viewBox="0 0 380 218.66667"
   height="218.66667"
   width="380"
   xml:space="preserve"
   id="svg2"
   version="1.1"><metadata
     id="metadata8"><rdf:RDF><cc:Work
         rdf:about=""><dc:format>image/svg+xml</dc:format><dc:type
           rdf:resource="http://purl.org/dc/dcmitype/StillImage" /></cc:Work></rdf:RDF></metadata><defs
     id="defs6" /><g
     transform="matrix(1.3333333,0,0,-1.3333333,0,218.66667)"
     id="g10"><g
       transform="scale(0.1)"
       id="g12"><path
         id="path14"
         style="fill:#f22238;fill-opacity:1;fill-rule:evenodd;stroke:none"
         d="M 9.05469,582.125 H 2843.7 V 1.22266 H 9.05469 V 582.125" /><path
         id="path16"
         style="fill:#ffffff;fill-opacity:1;fill-rule:nonzero;stroke:none"
         d="M 84.4102,525.121 H 2784.95 V 58.2266 H 71.5117 V 71.125 512.223 525.121 Z M 2759.16,499.328 H 97.3047 V 84.0234 H 2759.16 V 499.328" /><path
         id="path18"
         style="fill:#ffffff;fill-opacity:1;fill-rule:evenodd;stroke:none"
         d="m 2070.66,426.926 c -10.89,-0.059 -21.41,-2.18 -31.59,-6.363 -10.19,-4.184 -19.67,-10.2 -28.39,-17.993 -8.77,-7.851 -16.42,-17.254 -22.99,-28.199 -6.61,-11 -11.72,-23.266 -15.42,-36.848 -3.66,-13.64 -5.53,-28.312 -5.61,-44.011 0.04,-16.848 1.7,-32.492 5.03,-47.106 3.32,-14.558 8.02,-27.742 14.21,-39.488 6.15,-11.746 13.51,-21.836 22.07,-30.258 8.57,-8.422 18.13,-14.844 28.69,-19.371 10.55,-4.465 21.9,-6.758 34,-6.82 12.09,0.062 23.44,2.355 34,6.82 10.55,4.527 20.11,10.949 28.68,19.371 8.56,8.422 15.92,18.512 22.11,30.258 6.15,11.746 10.89,24.93 14.18,39.488 3.32,14.614 4.98,30.258 5.02,47.106 -0.04,15.699 -1.91,30.371 -5.61,44.011 -3.7,13.582 -8.81,25.848 -15.42,36.848 -6.57,10.945 -14.21,20.348 -22.99,28.199 -8.72,7.793 -18.2,13.809 -28.38,17.993 -10.19,4.183 -20.7,6.304 -31.59,6.363 z m -0.24,-65.332 c 3.61,-0.059 6.97,-1.949 10.11,-5.676 3.14,-3.668 5.9,-8.711 8.28,-15.129 2.39,-6.359 4.26,-13.695 5.61,-21.832 1.35,-8.195 2.04,-16.793 2.06,-25.789 -0.02,-11.234 -0.71,-21.547 -2.06,-30.949 -1.35,-9.395 -3.22,-17.59 -5.61,-24.524 -2.38,-6.879 -5.14,-12.265 -8.28,-16.105 -3.14,-3.781 -6.5,-5.731 -10.11,-5.785 -3.61,0.054 -6.97,2.004 -10.11,5.785 -3.14,3.84 -5.9,9.226 -8.28,16.105 -2.39,6.934 -4.26,15.129 -5.61,24.524 -1.34,9.402 -2.04,19.715 -2.06,30.949 0.02,8.996 0.72,17.594 2.06,25.789 1.35,8.137 3.22,15.473 5.61,21.832 2.38,6.418 5.14,11.461 8.28,15.129 3.14,3.727 6.5,5.617 10.11,5.676 z m -600.27,47.629 c -7.31,3.953 -14.74,6.984 -22.21,9.093 -7.48,2.168 -15.2,3.25 -23.14,3.25 -8.99,-0.054 -17.85,-1.625 -26.6,-4.765 -8.73,-3.192 -17.05,-7.688 -24.9,-13.59 -7.81,-5.898 -14.91,-12.992 -21.2,-21.273 -6.08,-8.071 -11.22,-16.895 -15.41,-26.477 -4.17,-9.637 -7.3,-19.766 -9.45,-30.43 -2.16,-10.609 -3.26,-21.547 -3.26,-32.754 -0.04,-18.25 2.45,-35.195 7.43,-50.785 5.03,-15.648 12.75,-29.566 23.23,-41.801 6.62,-7.687 13.76,-14.238 21.44,-19.601 7.69,-5.36 15.79,-9.418 24.24,-12.235 8.44,-2.816 17.09,-4.222 26,-4.222 5.11,0 9.97,0.543 14.57,1.515 4.6,0.973 9.29,2.329 14.02,4.008 4.72,1.731 9.79,3.684 15.24,5.848 v 76.34 c -3.51,-5.305 -7.56,-9.965 -12.12,-13.809 -4.56,-3.898 -9.46,-6.875 -14.69,-8.984 -5.24,-2.113 -10.55,-3.196 -16,-3.196 -7.77,0.055 -14.78,1.68 -21.11,4.981 -6.34,3.25 -11.78,7.852 -16.34,13.809 -4.52,5.953 -8.02,12.992 -10.51,21.113 -2.45,8.07 -3.68,17 -3.72,26.691 0.04,9.586 1.27,18.461 3.68,26.637 2.45,8.234 5.91,15.379 10.38,21.555 4.48,6.168 9.84,10.988 16.08,14.453 6.21,3.465 13.13,5.199 20.78,5.25 5.7,0 11.23,-1.028 16.59,-3.086 5.36,-2.059 10.34,-5.086 14.94,-9.098 4.6,-4.004 8.62,-8.93 12.04,-14.777 z M 1078.47,263.688 h -44.18 l 21.96,82.105 h 0.54 z m 14.36,-51.313 13.28,-44.812 h 56.65 l -76.97,257.933 h -58 L 949.188,167.563 h 56.372 l 14.1,44.812 z M 2409.75,362.57 h 6.14 c 5.24,0.055 10.46,-0.285 15.64,-1.082 5.12,-0.742 9.87,-2.222 14.13,-4.449 4.25,-2.223 7.71,-5.473 10.3,-9.75 2.53,-4.277 3.88,-9.918 3.93,-16.875 -0.05,-6.957 -1.4,-12.601 -3.93,-16.879 -2.59,-4.273 -6.05,-7.523 -10.3,-9.691 -4.26,-2.223 -9.01,-3.703 -14.13,-4.504 -5.18,-0.738 -10.4,-1.141 -15.64,-1.082 h -6.14 z m 62.76,-100.918 c 8.68,1.711 16.34,4.731 22.97,9.121 6.63,4.391 12.18,9.868 16.71,16.422 4.53,6.5 7.93,13.801 10.24,21.836 2.27,8.039 3.46,16.535 3.46,25.489 -0.06,13.742 -2.21,25.656 -6.48,35.632 -4.25,10.036 -10.19,18.243 -17.84,24.688 -7.66,6.5 -16.61,11.289 -26.85,14.367 -10.3,3.137 -21.46,4.676 -33.59,4.676 h -94.79 V 155.945 h 63.41 v 99.207 h 0.64 l 59.85,-99.207 h 78.94 z M 675.766,375.676 h 6.148 c 5.227,0.054 10.457,-0.289 15.633,-1.086 5.125,-0.742 9.867,-2.223 14.125,-4.445 4.262,-2.227 7.711,-5.477 10.301,-9.754 2.531,-4.274 3.882,-9.918 3.933,-16.871 -0.051,-6.957 -1.402,-12.606 -3.933,-16.879 -2.59,-4.278 -6.039,-7.528 -10.301,-9.692 -4.258,-2.226 -9,-3.707 -14.125,-4.504 -5.176,-0.742 -10.406,-1.144 -15.633,-1.086 h -6.148 z m 62.761,-100.918 c 8.68,1.711 16.336,4.73 22.965,9.121 6.633,4.391 12.188,9.863 16.715,16.418 4.531,6.5 7.926,13.801 10.246,21.84 2.266,8.039 3.449,16.535 3.449,25.484 -0.054,13.742 -2.211,25.656 -6.468,35.637 -4.262,10.035 -10.192,18.242 -17.848,24.687 -7.656,6.496 -16.609,11.289 -26.852,14.368 -10.296,3.132 -21.457,4.675 -33.589,4.675 h -94.79 V 169.051 h 63.411 v 99.207 h 0.644 l 59.852,-99.207 h 78.933 z m 1021.483,87.797 h 57.08 v 56.789 h -183.21 v -56.789 h 57.07 V 161.41 h 69.06 z M 397.824,373.473 h 57.078 v 56.789 H 271.695 V 373.473 H 328.77 V 172.328 h 69.054 v 201.145" /><path
         id="path20"
         style="fill:#f22238;fill-opacity:1;fill-rule:evenodd;stroke:none"
         d="m 1449.23,1637.68 c 756.86,0 1370.41,-265.1 1370.41,-592.12 0,-327.025 -613.55,-592.126 -1370.41,-592.126 -756.863,0 -1370.4214,265.101 -1370.4214,592.126 0,327.02 613.5584,592.12 1370.4214,592.12" /><path
         id="path22"
         style="fill:#ffffff;fill-opacity:1;fill-rule:nonzero;stroke:none"
         d="m 1445.03,1601.44 c 362.58,0 691.45,-59.64 930.04,-156.05 247.1,-99.85 399.94,-241.02 399.94,-399.83 0,-158.818 -152.84,-299.986 -399.94,-399.841 -238.59,-96.414 -567.46,-156.047 -930.04,-156.047 -362.58,0 -691.452,59.633 -930.042,156.047 -247.101,99.855 -399.941,241.023 -399.941,399.841 0,158.81 152.84,299.98 399.941,399.83 238.59,96.41 567.462,156.05 930.042,156.05 z m 907.06,-213.35 c -231.56,93.57 -552.21,151.45 -907.06,151.45 -354.85,0 -675.503,-57.88 -907.069,-151.45 -223.047,-90.14 -361.008,-211.44 -361.008,-342.53 0,-131.099 137.961,-252.4 361.008,-342.533 231.566,-93.574 552.219,-151.449 907.069,-151.449 354.85,0 675.5,57.875 907.06,151.449 223.05,90.133 361.01,211.434 361.01,342.533 0,131.09 -137.96,252.39 -361.01,342.53" /><path
         id="path24"
         style="fill:#ffffff;fill-opacity:1;fill-rule:evenodd;stroke:none"
         d="m 844.336,853.219 c 62.48,44.426 124.961,88.847 187.444,133.265 40.18,46.836 75.24,78.896 106.14,99.036 41.81,27.25 105.56,41.61 105.14,23.4 2.01,-12.62 -96.34,-37.16 -107.27,-140.85 -4.33,-41.152 34.85,-52.851 57.43,-52.011 81.21,3.039 186.19,145.001 97.51,183.111 37.56,25.64 75.12,51.28 112.68,76.93 21,-22.05 29.64,-52.08 19.51,-94.26 107.78,70.58 168.49,61.59 199.36,2.16 25.88,33.12 58.33,63.76 108.35,63.93 46.08,0.15 62.76,-30.57 54.17,-70.43 -11.51,-53.43 -88.84,-91.352 -120.77,-29.25 -26.39,-20.78 -33.47,-86.035 81.44,-63.988 45.96,74.488 171.62,164.168 262.04,150.508 25.28,-3.81 58.62,-8.48 79.64,-35.89 l 124.29,172.35 h 107.81 L 2074.1,938.883 c -21.77,-29.52 2.91,-55.961 59.75,-30.215 73.31,33.211 135.73,107.582 181.97,173.732 12,-11.82 15.5,-32.93 -2.07,-55.62 -81.12,-104.823 -200.5,-189.921 -267.81,-191.018 -35.64,-0.582 -80.14,15.777 -81.71,70.16 -64.54,-42.801 -109.03,-68.551 -172.35,-67.297 -62.94,1.254 -69.32,71.707 -63.18,105.75 0.26,1.402 0.57,2.824 0.92,4.262 -63.1,-8.602 -123.58,-5.364 -136.57,76.933 l -135.52,-178.832 -110.82,-0.25 141.39,172.772 c 35.37,43.22 -19.03,73.22 -82.98,2.19 -154.79,-171.946 -233.05,-187.067 -310.24,-185.196 -38.63,0.941 -80.92,30.664 -71.25,99.211 -98.2,-84.457 -152.517,-104 -179.294,-82.246 z M 1060.38,1303.4 c 26.44,16.22 29.42,-15.29 -0.59,-34.29 -53.65,-33.94 -157.907,-81.04 -236.895,-79.55 -47.774,0.9 -61.512,31.05 -61.836,53.82 -0.567,39.89 81.894,103.05 163.976,134.92 87.565,34.01 192.615,49.98 271.225,47.52 184.29,-5.77 393.29,-93.76 543.52,-100.41 60.04,-2.66 131.89,3.71 170.16,10.4 18.79,3.29 4.01,-22.71 -12.82,-32.41 -31.46,-18.11 -106.62,-53.99 -200.22,-53.89 -97.74,0.11 -214.42,36.56 -325.16,70.62 -98.74,30.37 -177.62,60.05 -264.4,57.94 -65.15,-1.57 -209.348,-26.34 -210.996,-95.48 -0.387,-16.38 27.707,-21.53 45.941,-20.85 41.496,1.56 96.015,28.12 118.095,41.66 z m 144.61,22.4 c 26.73,11.06 39.83,-3.03 16.54,-18.48 -42.9,-28.44 -87.6,-80.67 -132.5,-136.77 43.29,5.18 85.95,12.47 123.74,25.89 -8.65,52.01 54.17,113.18 106.48,113.91 28.38,0.39 54.02,-16.37 52.63,-39.01 -2.25,-36.61 -44.29,-67.2 -74.49,-81.71 15.72,-8.56 29.44,5.96 36.25,-1.96 2.95,-3.41 -18.75,-32.54 -47.86,-39.01 -19.93,-4.44 -46.02,9.07 -59.39,19.57 -54.84,-14.59 -110.6,-27.25 -167.55,-35.75 -38.23,-48.39 -76.36,-96.36 -113.395,-131.61 -85.98,-81.835 -188.902,-163.495 -290.004,-164.311 -70.492,-0.571 -144.261,51.484 -140.066,110.882 3.598,50.957 57.309,85.779 98.238,73.919 1.375,-48.141 29.848,-63.376 59.332,-66.137 115.024,-10.778 230.602,103.017 300.903,166.877 l 1.332,1.22 c -3.801,-0.25 -7.602,-0.49 -11.414,-0.71 -70.61,-3.92 -142.567,-3.54 -214.953,-3.17 -93.372,0.49 -167.868,-37.67 -195.504,-52.36 -17.661,-9.39 -45.059,17.24 6.808,43.77 49.301,25.2 114.082,39.09 169.254,40.74 91.715,2.75 182.387,1.18 275.339,10.36 3.43,0.34 6.87,0.67 10.33,1 61.42,65.89 97.23,124.51 189.95,162.85 z m 76.63,-110.35 c -5.83,27.45 15.8,68.02 43.24,67.16 6.75,-0.21 13.79,-6.18 12.87,-15.64 -2.25,-23.29 -37.41,-43.08 -56.11,-51.52 z m 716.26,-155.72 c 28.06,-4.67 45.78,1.14 50.13,17.17 3.81,14.05 -10.96,17.92 -36.39,18.55 -81.91,1.99 -167.07,-109.095 -168.34,-155.192 -0.54,-19.516 13.25,-29.199 35.12,-28.84 32.1,0.52 74,12.66 146.26,105.062 -23.62,4.62 -30.62,20.32 -26.78,43.25" /></g></g></svg>