<?xml version="1.0" encoding="UTF-8" standalone="no"?>
<svg
   xmlns:dc="http://purl.org/dc/elements/1.1/"
   xmlns:cc="http://creativecommons.org/ns#"
   xmlns:rdf="http://www.w3.org/1999/02/22-rdf-syntax-ns#"
   xmlns:svg="http://www.w3.org/2000/svg"
   xmlns="http://www.w3.org/2000/svg"
   xmlns:xlink="http://www.w3.org/1999/xlink"
   xmlns:sodipodi="http://sodipodi.sourceforge.net/DTD/sodipodi-0.dtd"
   xmlns:inkscape="http://www.inkscape.org/namespaces/inkscape"
   sodipodi:docname="logo.svg"
   inkscape:version="1.0 (4035a4f, 2020-05-01)"
   id="svg8"
   version="1.1"
   viewBox="0 0 86.251122 51.030361"
   height="51.030361mm"
   width="86.251122mm">
  <defs
     id="defs2" />
  <sodipodi:namedview
     inkscape:window-maximized="1"
     inkscape:window-y="27"
     inkscape:window-x="35"
     inkscape:window-height="969"
     inkscape:window-width="1245"
     inkscape:pagecheckerboard="true"
     showgrid="false"
     inkscape:document-rotation="0"
     inkscape:current-layer="layer1"
     inkscape:document-units="mm"
     inkscape:cy="97.797776"
     inkscape:cx="140.28777"
     inkscape:zoom="1.8700879"
     inkscape:pageshadow="2"
     inkscape:pageopacity="0.0"
     borderopacity="1.0"
     bordercolor="#666666"
     pagecolor="#ffffff"
     id="base"
     showguides="false"
     inkscape:guide-bbox="true"
     inkscape:snap-global="false" />
  <metadata
     id="metadata5">
    <rdf:RDF>
      <cc:Work
         rdf:about="">
        <dc:format>image/svg+xml</dc:format>
        <dc:type
           rdf:resource="http://purl.org/dc/dcmitype/StillImage" />
        <dc:title></dc:title>
      </cc:Work>
    </rdf:RDF>
  </metadata>
  <g
     style="display:inline"
     inkscape:label="Layer 2"
     id="layer2"
     inkscape:groupmode="layer">
    <g
       id="g1025"
       transform="translate(-36.00114,-77.128214)">
      <g
         id="g16"
         transform="matrix(0.3527778,0,0,-0.3527778,-0.8159807,186.00566)"
         style="fill:#a40000">
        <text
           y="-206.19415"
           x="118.02827"
           transform="scale(1,-1)"
           style="font-variant:normal;font-weight:bold;font-size:10.8291px;font-family:Montserrat;-inkscape-font-specification:Montserrat-Bold;writing-mode:lr-tb;fill:#a40000;fill-opacity:1;fill-rule:nonzero;stroke:none"
           id="text20"><tspan
             style="font-style:normal;font-variant:normal;font-weight:bold;font-stretch:normal;font-family:'Montserrat Alternates';-inkscape-font-specification:'Montserrat Alternates Bold';fill:#a40000"
             sodipodi:role="line"
             id="tspan1024"
             x="151.79341"
             y="-206.19415"><tspan
               style="font-style:normal;font-variant:normal;font-weight:bold;font-stretch:normal;font-family:'Montserrat Alternates';-inkscape-font-specification:'Montserrat Alternates Bold';fill:#a40000"
               x="151.79341"
               id="tspan18">Razem od 1991 Roku</tspan></tspan></text>
        <ellipse
           style="font-variation-settings:normal;opacity:1;vector-effect:none;fill:#a40000;fill-opacity:1;fill-rule:evenodd;stroke:#000000;stroke-width:1.1295;stroke-linecap:butt;stroke-linejoin:miter;stroke-miterlimit:4;stroke-dasharray:none;stroke-dashoffset:0;stroke-opacity:1;paint-order:fill markers stroke;stop-color:#000000;stop-opacity:1"
           id="path1015"
           cx="227.34149"
           cy="-234.9735"
           transform="scale(1,-1)"
           rx="119.48872"
           ry="67.212486" />
      </g>
      <ellipse
         style="font-variation-settings:normal;opacity:1;vector-effect:none;fill:#ffffff;fill-opacity:1;fill-rule:evenodd;stroke:none;stroke-width:0.419644;stroke-linecap:butt;stroke-linejoin:miter;stroke-miterlimit:4;stroke-dasharray:none;stroke-dashoffset:0;stroke-opacity:1;paint-order:fill markers stroke;stop-color:#000000;stop-opacity:1"
         id="path1017"
         cx="79.284492"
         cy="103.05973"
         rx="40.775539"
         ry="22.519964" />
    </g>
  </g>
  <g
     transform="translate(-36.00114,-77.128213)"
     id="layer1"
     inkscape:groupmode="layer"
     inkscape:label="Layer 1">
    <g
       transform="matrix(1.0131123,0,0,1.1019827,5.3205334,-2.50766)"
       id="g1066">
      <g
         id="g22"
         transform="matrix(0.3527778,0,0,-0.3527778,26.988326,195.43152)">
        <text
           transform="matrix(1,0,0,-1,92.6227,242.77)"
           style="font-variant:normal;font-weight:900;font-size:27.1234px;font-family:Montserrat;-inkscape-font-specification:Montserrat-Black;writing-mode:lr-tb;fill:#006838;fill-opacity:1;fill-rule:nonzero;stroke:none"
           id="text28"><tspan
             style="font-style:normal;font-variant:normal;font-weight:bold;font-stretch:normal;font-family:'Montserrat Alternates';-inkscape-font-specification:'Montserrat Alternates Bold'"
             x="0"
             y="0"
             id="tspan24">Sidor</tspan></text>
      </g>
      <path
         d="m 51.608241,91.104211 c 0,0 0.135467,0.501297 0.643467,0.572911 0.507647,0.07161 0.981428,-0.429683 0.981428,-0.429683 0,0 0.02858,0.747183 -0.817739,0.804333 -0.846314,0.0575 -0.807156,-0.947561 -0.807156,-0.947561 z m 0.285397,-1.672873 c 0,0 0.08784,0.325262 0.417336,0.371828 0.329495,0.04621 0.636764,-0.278694 0.636764,-0.278694 0,0 0.0187,0.484716 -0.530577,0.521758 -0.548923,0.03704 -0.523523,-0.614892 -0.523523,-0.614892 z m 1.8669,3.724276 c 0,0 0.0187,0.484716 -0.530577,0.521758 -0.548923,0.0374 -0.523523,-0.614539 -0.523523,-0.614539 0,0 0.08784,0.324908 0.417337,0.371475 0.329494,0.04657 0.636763,-0.278694 0.636763,-0.278694 z m -1.19768,2.034116 c -0.549275,0.03704 -0.523875,-0.614891 -0.523875,-0.614891 0,0 0.08819,0.325261 0.417336,0.371828 0.329494,0.04621 0.637117,-0.278695 0.637117,-0.278695 0,0 0.01834,0.484364 -0.530578,0.521758 z m -1.140531,1.168401 c 0.31362,-0.05362 0.532342,-0.187325 0.669572,-0.305506 0.0053,0.0021 0.0078,0.0021 0.01305,0.0046 v 3.026474 h 0.922514 v -3.026474 c 0.0053,-0.0025 0.0078,-0.0025 0.01305,-0.0046 l 0.01058,0.0088 c 0.136878,0.116064 0.353131,0.245181 0.658989,0.296687 0.613834,0.104775 0.982839,-0.312209 0.982839,-0.312209 0,0 1.064684,0.207434 1.188509,-0.497416 0.03175,-0.179917 -0.02575,-0.488245 -0.128412,-0.84702 -0.11183,0.166864 -0.313972,0.321381 -0.680861,0.346075 -0.846314,0.05715 -0.807155,-0.947561 -0.807155,-0.947561 0,0 0.135466,0.501297 0.643466,0.572911 0.293512,0.04127 0.575734,-0.108656 0.761648,-0.242711 -0.223309,-0.690386 -0.561975,-1.484842 -0.752475,-1.915584 -0.03457,0.0053 -0.06985,0.0095 -0.10795,0.01235 -0.846314,0.05715 -0.807156,-0.947914 -0.807156,-0.947914 0,0 0.135467,0.501297 0.643467,0.572911 0.07373,0.01058 0.146755,0.0085 0.218016,-0.0021 0.130175,-0.09031 0.169687,-0.236008 0.174273,-0.358422 0.0078,-0.111478 -0.02117,-0.225425 -0.06879,-0.327731 l -1.259417,-2.671586 c 0.202847,-0.02011 0.287161,-0.160514 0.316089,-0.296333 0.03175,-0.134056 0.0078,-0.271992 -0.05539,-0.399345 l -1.106664,-2.225322 c -0.03704,-0.07585 -0.108303,-0.140406 -0.2032,-0.1651 -0.0053,-0.0021 -0.0078,-0.0042 -0.01305,-0.0042 -0.158044,-0.03351 -0.313619,0.03563 -0.374297,0.155927 l -1.111956,2.238728 c -0.0635,0.127353 -0.08714,0.265289 -0.05539,0.399345 0.02893,0.135819 0.113242,0.276225 0.316089,0.296333 l -1.256947,2.669117 c -0.05539,0.116064 -0.08177,0.240947 -0.06855,0.367947 0.01316,0.138289 0.07384,0.296686 0.260809,0.367947 0,0 -1.230666,2.649009 -1.106805,3.35139 0.123895,0.70485 1.188649,0.497416 1.188649,0.497416 0,0 0.369006,0.416984 0.982839,0.312209"
         style="fill:#006838;fill-opacity:1;fill-rule:nonzero;stroke:none;stroke-width:0.0352778"
         id="path30" />
      <path
         d="m 92.729433,91.104211 c 0,0 0.135466,0.501297 0.643466,0.572911 0.507648,0.07161 0.981781,-0.429683 0.981781,-0.429683 0,0 0.02822,0.747183 -0.818092,0.804333 -0.846314,0.0575 -0.807155,-0.947561 -0.807155,-0.947561 z m 0.285397,-1.672873 c 0,0 0.08784,0.325262 0.417336,0.371828 0.329494,0.04621 0.636764,-0.278694 0.636764,-0.278694 0,0 0.0187,0.484716 -0.530225,0.521758 -0.549275,0.03704 -0.523875,-0.614892 -0.523875,-0.614892 z m 1.8669,3.724276 c 0,0 0.0187,0.484716 -0.530578,0.521758 -0.548922,0.0374 -0.523522,-0.614539 -0.523522,-0.614539 0,0 0.08784,0.324908 0.417336,0.371475 0.329494,0.04657 0.636764,-0.278694 0.636764,-0.278694 z m -1.197681,2.034116 c -0.549275,0.03704 -0.523875,-0.614891 -0.523875,-0.614891 0,0 0.08819,0.325261 0.417336,0.371828 0.329495,0.04621 0.637117,-0.278695 0.637117,-0.278695 0,0 0.01834,0.484364 -0.530578,0.521758 z m -1.14053,1.168401 c 0.313619,-0.05362 0.532341,-0.187325 0.669572,-0.305506 0.0053,0.0021 0.0078,0.0021 0.01305,0.0046 v 3.026474 h 0.922514 v -3.026474 c 0.0053,-0.0025 0.0078,-0.0025 0.01305,-0.0046 l 0.01058,0.0088 c 0.136878,0.116064 0.35313,0.245181 0.658989,0.296687 0.613833,0.104775 0.982839,-0.312209 0.982839,-0.312209 0,0 1.064683,0.207434 1.188508,-0.497416 0.03175,-0.179917 -0.02575,-0.488245 -0.128411,-0.84702 -0.111831,0.166864 -0.313972,0.321381 -0.680861,0.346075 -0.846314,0.05715 -0.807156,-0.947561 -0.807156,-0.947561 0,0 0.135467,0.501297 0.643467,0.572911 0.293511,0.04127 0.575733,-0.108656 0.761647,-0.242711 -0.223308,-0.690386 -0.561975,-1.484842 -0.752475,-1.915584 -0.03422,0.0053 -0.06985,0.0095 -0.10795,0.01235 -0.846314,0.05715 -0.807155,-0.947914 -0.807155,-0.947914 0,0 0.135466,0.501297 0.643466,0.572911 0.07373,0.01058 0.146756,0.0085 0.218017,-0.0021 0.130175,-0.09031 0.169686,-0.236008 0.174272,-0.358422 0.0078,-0.111478 -0.02117,-0.225425 -0.06879,-0.327731 l -1.259416,-2.671586 c 0.202847,-0.02011 0.287161,-0.160514 0.316089,-0.296333 0.03175,-0.134056 0.0078,-0.271992 -0.05539,-0.399345 l -1.106664,-2.225322 c -0.03704,-0.07585 -0.108303,-0.140406 -0.2032,-0.1651 -0.0053,-0.0021 -0.0078,-0.0042 -0.01305,-0.0042 -0.158045,-0.03351 -0.31362,0.03563 -0.374297,0.155927 l -1.111956,2.238728 c -0.0635,0.127353 -0.08714,0.265289 -0.05539,0.399345 0.02893,0.135819 0.113241,0.276225 0.316089,0.296333 l -1.256948,2.669117 c -0.05539,0.116064 -0.08184,0.240947 -0.06844,0.367947 0.01305,0.138289 0.07373,0.296686 0.260703,0.367947 0,0 -1.230489,2.649009 -1.106664,3.35139 0.123825,0.70485 1.188509,0.497416 1.188509,0.497416 0,0 0.369005,0.416984 0.982839,0.312209"
         style="fill:#006838;fill-opacity:1;fill-rule:nonzero;stroke:none;stroke-width:0.0352778"
         id="path32" />
      <path
         d="m 45.707785,93.871047 c 0,0 0.104317,0.386292 0.495653,0.441678 0.391231,0.05503 0.756426,-0.331258 0.756426,-0.331258 0,0 0.02205,0.575733 -0.630167,0.61983 -0.652109,0.0441 -0.621912,-0.73025 -0.621912,-0.73025 z m 0.219922,-1.288697 c 0,0 0.06766,0.250472 0.321487,0.286455 0.253858,0.03563 0.490713,-0.214841 0.490713,-0.214841 0,0 0.01422,0.373239 -0.408693,0.402166 -0.423086,0.02858 -0.403507,-0.47378 -0.403507,-0.47378 z m 1.438381,2.869494 c 0,0 0.01436,0.373239 -0.408693,0.401814 -0.423086,0.02893 -0.403507,-0.473428 -0.403507,-0.473428 0,0 0.06766,0.250473 0.321486,0.286456 0.253859,0.03563 0.490714,-0.214842 0.490714,-0.214842 z m -0.922867,1.567039 c -0.423051,0.02857 -0.403472,-0.473427 -0.403472,-0.473427 0,0 0.0678,0.250472 0.321628,0.286102 0.253682,0.03598 0.490573,-0.214841 0.490573,-0.214841 0,0 0.01436,0.373591 -0.408729,0.402166 z m -0.878628,0.900286 c 0.241582,-0.0413 0.410245,-0.14428 0.515796,-0.2353 0.004,0.002 0.0061,0.002 0.01006,0.004 v 2.331861 h 0.710812 v -2.331861 c 0.004,-0.002 0.0061,-0.002 0.01005,-0.004 l 0.0081,0.007 c 0.105586,0.0896 0.272168,0.18909 0.507682,0.2286 0.473075,0.0808 0.757379,-0.24059 0.757379,-0.24059 0,0 0.820349,0.15981 0.915846,-0.38312 0.02438,-0.138639 -0.01986,-0.376412 -0.09909,-0.652637 -0.08611,0.128764 -0.24197,0.24765 -0.524475,0.2667 -0.652074,0.0441 -0.621912,-0.73025 -0.621912,-0.73025 0,0 0.104317,0.386292 0.495688,0.441325 0.226131,0.0321 0.443442,-0.08361 0.586776,-0.186972 -0.17198,-0.531636 -0.432859,-1.144058 -0.579614,-1.47567 -0.0266,0.0039 -0.05401,0.0074 -0.08311,0.0092 -0.652215,0.04445 -0.622018,-0.729898 -0.622018,-0.729898 0,0 0.104458,0.386292 0.495653,0.441325 0.05694,0.0081 0.113277,0.0063 0.167993,-0.0018 0.100471,-0.0695 0.130916,-0.181681 0.134232,-0.276225 0.0062,-0.08572 -0.01612,-0.173567 -0.05278,-0.252589 l -0.970562,-2.058106 c 0.156422,-0.01552 0.221298,-0.123825 0.243628,-0.2286 0.02441,-0.103011 0.0061,-0.20955 -0.04258,-0.307622 l -0.852875,-1.7145 c -0.02836,-0.05856 -0.08322,-0.108303 -0.156387,-0.127 -0.004,-0.0018 -0.0061,-0.0035 -0.01005,-0.0035 -0.121814,-0.02575 -0.241723,0.02752 -0.288431,0.120297 l -0.856862,1.724731 c -0.04865,0.09807 -0.06699,0.204611 -0.04258,0.307622 0.02233,0.104775 0.08721,0.213078 0.243628,0.2286 l -0.968622,2.056342 c -0.04258,0.0896 -0.06283,0.185561 -0.05278,0.283633 0.0102,0.106539 0.0569,0.2286 0.201048,0.283633 0,0 -0.948231,2.04082 -0.852875,2.581981 0.0955,0.54293 0.915846,0.38312 0.915846,0.38312 0,0 0.284304,0.32138 0.757379,0.24059"
         style="fill:#006838;fill-opacity:1;fill-rule:nonzero;stroke:none;stroke-width:0.0352778"
         id="path34" />
      <path
         d="m 99.069555,93.871047 c 0,0 0.104422,0.386292 0.495653,0.441678 0.391231,0.05503 0.756352,-0.331258 0.756352,-0.331258 0,0 0.0222,0.575733 -0.630058,0.61983 -0.651933,0.0441 -0.621947,-0.73025 -0.621947,-0.73025 z m 0.220134,-1.288697 c 0,0 0.06773,0.250472 0.32138,0.286455 0.253647,0.03563 0.490711,-0.214841 0.490711,-0.214841 0,0 0.0141,0.373239 -0.408866,0.402166 -0.422981,0.02858 -0.403225,-0.47378 -0.403225,-0.47378 z m 1.438271,2.869494 c 0,0 0.0141,0.373239 -0.40887,0.401814 -0.422976,0.02893 -0.403221,-0.473428 -0.403221,-0.473428 0,0 0.06773,0.250473 0.321381,0.286456 0.254,0.03563 0.49071,-0.214842 0.49071,-0.214842 z m -0.922863,1.567039 c -0.422981,0.02857 -0.403578,-0.473427 -0.403578,-0.473427 0,0 0.06773,0.250472 0.321733,0.286102 0.253648,0.03598 0.490718,-0.214841 0.490718,-0.214841 0,0 0.0141,0.373591 -0.408873,0.402166 z m -0.87877,0.900286 c 0.241653,-0.0413 0.410281,-0.14428 0.515762,-0.2353 0.0042,0.002 0.0063,0.002 0.01023,0.004 v 2.331861 h 0.710851 v -2.331861 c 0.004,-0.002 0.006,-0.002 0.01,-0.004 l 0.008,0.007 c 0.10583,0.0896 0.27234,0.18909 0.50764,0.2286 0.47308,0.0808 0.75742,-0.24059 0.75742,-0.24059 0,0 0.82056,0.15981 0.91581,-0.38312 0.0247,-0.138639 -0.0197,-0.376412 -0.0988,-0.652637 -0.0861,0.128764 -0.24201,0.24765 -0.52458,0.2667 -0.65229,0.0441 -0.62195,-0.73025 -0.62195,-0.73025 0,0 0.10442,0.386292 0.49565,0.441325 0.22613,0.0321 0.44344,-0.08361 0.58667,-0.186972 -0.1718,-0.531636 -0.43286,-1.144058 -0.57961,-1.47567 -0.0265,0.0039 -0.054,0.0074 -0.0829,0.0092 -0.65229,0.04445 -0.62195,-0.729898 -0.62195,-0.729898 0,0 0.10407,0.386292 0.49565,0.441325 0.0568,0.0081 0.11325,0.0063 0.16793,-0.0018 0.10054,-0.0695 0.13088,-0.181681 0.13405,-0.276225 0.006,-0.08572 -0.0162,-0.173567 -0.0526,-0.252589 l -0.97084,-2.058106 c 0.15663,-0.01552 0.22154,-0.123825 0.24377,-0.2286 0.0243,-0.103011 0.006,-0.20955 -0.0427,-0.307622 l -0.85267,-1.7145 c -0.0286,-0.05856 -0.08326,-0.108303 -0.156278,-0.127 -0.0042,-0.0018 -0.0063,-0.0035 -0.01023,-0.0035 -0.122062,-0.02575 -0.241653,0.02752 -0.288573,0.120297 l -0.856897,1.724731 c -0.04868,0.09807 -0.06668,0.204611 -0.04233,0.307622 0.02223,0.104775 0.08714,0.213078 0.243416,0.2286 l -0.968375,2.056342 c -0.04269,0.0896 -0.06315,0.185561 -0.05292,0.283633 0.01023,0.106539 0.0568,0.2286 0.201083,0.283633 0,0 -0.948267,2.04082 -0.853017,2.581981 0.0956,0.54293 0.915811,0.38312 0.915811,0.38312 0,0 0.284339,0.32138 0.757414,0.24059"
         style="fill:#006838;fill-opacity:1;fill-rule:nonzero;stroke:none;stroke-width:0.0352778"
         id="path36" />
      <path
         d="m 73.126629,98.356969 c 15.784337,0 29.589241,2.098681 37.125631,5.230641 -5.65785,-4.048481 -20.144319,-6.928207 -37.125631,-6.928207 -16.98096,0 -31.467533,2.879726 -37.125489,6.928207 7.536639,-3.13196 21.341151,-5.230641 37.125489,-5.230641"
         style="fill:#006838;fill-opacity:1;fill-rule:nonzero;stroke:none;stroke-width:0.0352778"
         id="path38" />
      <path
         d="m 67.489592,81.445155 c -0.01623,-0.832556 -0.34678,-1.6129 -0.937331,-2.203451 l -0.504825,-0.504472 v 1.047045 c 0.439209,0.448028 0.686506,1.034697 0.702381,1.660878 h 0.739775"
         style="fill:#3b2314;fill-opacity:1;fill-rule:nonzero;stroke:none;stroke-width:0.0352778"
         id="path40" />
      <path
         d="m 66.751228,81.63001 v 4.252384 h 0.739775 V 81.63001 h -0.739775"
         style="fill:#3b2314;fill-opacity:1;fill-rule:nonzero;stroke:none;stroke-width:0.0352778"
         id="path42" />
      <path
         d="M 84.706913,85.790319 V 77.991107 H 83.82144 v 7.799212 h 0.885473"
         style="fill:#3b2314;fill-opacity:1;fill-rule:nonzero;stroke:none;stroke-width:0.0352778"
         id="path44" />
      <path
         d="m 69.088734,85.882394 v -0.489303 h -1.089731 v 0.489303 h 1.089731"
         style="fill:#3b2314;fill-opacity:1;fill-rule:nonzero;stroke:none;stroke-width:0.0352778"
         id="path46" />
      <path
         d="m 76.056801,83.334985 c 0.104775,0 0.206728,0.01764 0.303742,0.05115 l -0.675217,1.431925 -0.345722,0.226836 h -0.523523 c 0,-0.0067 -7.05e-4,-0.01305 -7.05e-4,-0.01976 0,-0.932039 0.557036,-1.690159 1.241425,-1.690159 z m 1.007181,0.704145 -0.280812,1.005769 h -0.411691 l -0.183445,-0.136525 0.592314,-1.255889 c 0.109361,0.107245 0.204964,0.238125 0.283634,0.386645 z m 4.49968,1.843264 c 0.232128,-0.04762 0.468489,-0.07761 0.708025,-0.08784 v -2.470505 c 0,-0.8001 -0.648405,-1.448858 -1.448505,-1.448858 h -0.03986 l 0.993422,-3.884084 h -0.922867 l -0.993069,3.884084 h -1.092553 c -0.650169,0 -1.220611,0.432858 -1.395589,1.059039 l -0.12453,0.446616 c -0.31115,-0.384175 -0.73025,-0.620183 -1.191331,-0.620183 -0.956381,0 -1.734608,1.016 -1.734608,2.264481 0,0.0067 3.52e-4,0.01305 3.52e-4,0.01976 h -1.655233 l 1.803753,-7.053792 h -0.922867 l -2.017536,7.891287 h 10.033"
         style="fill:#3b2314;fill-opacity:1;fill-rule:nonzero;stroke:none;stroke-width:0.0352778"
         id="path48" />
      <path
         d="m 58.21718,92.806364 c 0,-1.497189 0.623712,-2.823281 1.582914,-3.644195 v -0.838906 c -1.924755,0.253648 -3.421239,2.163234 -3.421239,4.483101 0,2.492022 1.726848,4.512025 3.857273,4.512025 h 1.838325 c -2.130425,0 -3.857273,-2.020003 -3.857273,-4.512025"
         style="fill:#3b2314;fill-opacity:1;fill-rule:nonzero;stroke:none;stroke-width:0.0352778"
         id="path50" />
      <path
         d="m 65.613167,94.667619 h -1.633008 c -0.358423,0.374298 -0.810684,0.598664 -1.303162,0.598664 -0.492477,0 -0.945797,-0.224366 -1.303866,-0.598664 h -1.264709 -0.308328 v -0.308327 -4.948415 c -0.807861,0.826559 -1.318683,2.04082 -1.318683,3.395487 0,2.440164 1.656292,4.426656 3.725334,4.508145 -0.0025,3.5e-4 -0.0049,3.5e-4 -0.0071,3.5e-4 0.04621,0.002 0.09243,0.004 0.139347,0.004 1.562806,0 2.907595,-1.087611 3.513667,-2.65077 h -0.239536"
         style="fill:#3b2314;fill-opacity:1;fill-rule:nonzero;stroke:none;stroke-width:0.0352778"
         id="path52" />
      <path
         d="m 77.899359,94.359292 c -0.351719,-0.812801 -0.539044,-1.715206 -0.539044,-2.650773 0,-1.571978 0.525286,-3.051881 1.478844,-4.167364 0.965201,-1.129242 2.25284,-1.750836 3.625498,-1.750836 h 2.285647 0.307975 v 0 c 0.0071,0 0.01376,0 0.02046,0 0.379942,0 0.752828,0.04762 1.114425,0.140405 v -0.885825 h -6.255808 l -3.197578,5.514623 h -0.606072 c 0.306916,0.671336 0.481541,1.435806 0.481541,2.246842 0,0.543277 -0.07902,1.065389 -0.222955,1.552928 h 1.507066"
         style="fill:#3b2314;fill-opacity:1;fill-rule:nonzero;stroke:none;stroke-width:0.0352778"
         id="path54" />
      <path
         d="m 68.327792,92.806364 c 0,-2.492375 1.726847,-4.512381 3.857273,-4.512381 h -1.838326 c -2.130425,0 -3.857272,2.020006 -3.857272,4.512381 0,2.492022 1.726847,4.512025 3.857272,4.512025 h 1.838326 c -2.130426,0 -3.857273,-2.020003 -3.857273,-4.512025"
         style="fill:#3b2314;fill-opacity:1;fill-rule:nonzero;stroke:none;stroke-width:0.0352778"
         id="path56" />
      <path
         d="m 70.93094,92.806364 c 0,-0.608895 0.212019,-1.192389 0.583494,-1.610078 0.111478,-0.04339 0.226131,-0.06526 0.342547,-0.06526 0.685095,0 1.242484,0.751417 1.242484,1.675342 0,0.923572 -0.557389,1.675341 -1.242484,1.675341 -0.116416,0 -0.231069,-0.02222 -0.342547,-0.06562 C 71.142959,93.9984 70.93094,93.414905 70.93094,92.806364 Z m 1.856669,2.459919 c -0.495653,0 -0.951089,-0.201083 -1.310569,-0.536575 0.123825,0.03986 0.251177,0.05997 0.379941,0.05997 0.854781,0 1.550459,-0.889705 1.550459,-1.983316 0,-1.093964 -0.695678,-1.98367 -1.550459,-1.98367 -0.128764,0 -0.256116,0.02011 -0.379941,0.05997 0.35948,-0.335139 0.814916,-0.536222 1.310569,-0.536222 1.160992,0 2.102203,1.10102 2.102203,2.45992 0,1.358547 -0.941211,2.459919 -2.102203,2.459919 z m -0.337961,-6.9723 c -0.04692,0 -0.09313,0.0014 -0.139347,0.0035 0.0025,3.52e-4 0.0046,3.52e-4 0.0071,3.52e-4 -2.069042,0.08149 -3.725333,2.067984 -3.725333,4.508501 0,2.440164 1.656291,4.426656 3.725333,4.508143 -0.0025,3.5e-4 -0.0049,3.5e-4 -0.0071,3.5e-4 0.04621,0.002 0.09243,0.004 0.139347,0.004 2.130425,0 3.857625,-2.020001 3.857625,-4.512023 0,-2.492375 -1.7272,-4.512381 -3.857625,-4.512381"
         style="fill:#3b2314;fill-opacity:1;fill-rule:nonzero;stroke:none;stroke-width:0.0352778"
         id="path58" />
      <path
         d="m 79.95429,91.708519 c 0,-3.098447 2.147006,-5.610225 4.796014,-5.610225 h -2.285647 c -2.649009,0 -4.796014,2.511778 -4.796014,5.610225 0,3.098448 2.147005,5.60987 4.796014,5.60987 h 2.285647 c -2.649008,0 -4.796014,-2.511422 -4.796014,-5.60987"
         style="fill:#3b2314;fill-opacity:1;fill-rule:nonzero;stroke:none;stroke-width:0.0352778"
         id="path60" />
      <path
         d="m 83.130701,91.708519 c 0,-0.776464 0.27305,-1.52153 0.750359,-2.052108 0.149578,-0.06032 0.304447,-0.09102 0.460728,-0.09102 0.885119,0 1.604786,0.96132 1.604786,2.143125 0,1.181453 -0.719667,2.142773 -1.604786,2.142773 -0.156281,0 -0.31115,-0.03034 -0.460728,-0.09066 -0.477309,-0.530931 -0.750359,-1.275645 -0.750359,-2.05211 z m 2.368198,3.058231 c -0.628297,0 -1.205089,-0.259645 -1.655939,-0.691797 0.162278,0.05609 0.329494,0.08467 0.498828,0.08467 1.054805,0 1.913114,-1.099608 1.913114,-2.4511 0,-1.351492 -0.858309,-2.4511 -1.913114,-2.4511 -0.169334,0 -0.33655,0.02858 -0.498828,0.08467 0.45085,-0.432153 1.027642,-0.69215 1.655939,-0.69215 1.443919,0 2.614083,1.369483 2.614083,3.058583 0,1.6891 -1.170164,3.058231 -2.614083,3.058231 z M 85.07874,86.098294 c -0.05786,0 -0.115005,0.0018 -0.172508,0.0046 0.0028,0 0.0056,3.53e-4 0.0081,3.53e-4 -2.572456,0.1016 -4.63162,2.571397 -4.63162,5.605286 0,3.033889 2.059164,5.503687 4.63162,5.605286 -0.0025,0 -0.0053,0 -0.0081,3.5e-4 0.0575,0.002 0.114653,0.004 0.172508,0.004 2.649009,0 4.796015,-2.511418 4.796015,-5.609866 0,-3.098447 -2.147006,-5.610225 -4.796015,-5.610225"
         style="fill:#3b2314;fill-opacity:1;fill-rule:nonzero;stroke:none;stroke-width:0.0352778"
         id="path62" />
      <path
         d="m 69.345556,85.24316 h -1.603375 l 0.350661,-0.9017 h 0.902053 l 0.350661,0.9017"
         style="fill:#3b2314;fill-opacity:1;fill-rule:nonzero;stroke:none;stroke-width:0.0352778"
         id="path64" />
      <path
         d="m 65.106578,93.948305 h -0.460022 v -6.360231 c 0,-0.164041 0.103364,-0.298097 0.230011,-0.298097 0.126294,0 0.230011,0.134056 0.230011,0.298097 z m -0.990953,0 h -0.459669 v -6.360231 c 0,-0.164041 0.103364,-0.298097 0.230011,-0.298097 0.126294,0 0.229658,0.134056 0.229658,0.298097 z m -0.9906,0 h -0.459669 v -6.360231 c 0,-0.164041 0.103364,-0.298097 0.229658,-0.298097 0.126647,0 0.230011,0.134056 0.230011,0.298097 z m -0.9906,0 h -0.459669 v -6.360231 c 0,-0.164041 0.103364,-0.298097 0.229658,-0.298097 0.126647,0 0.230011,0.134056 0.230011,0.298097 z m -0.9906,0 h -0.460022 v -6.360231 c 0,-0.164041 0.103716,-0.298097 0.230011,-0.298097 0.126294,0 0.230011,0.134056 0.230011,0.298097 z m 3.7338,-7.850011 h -4.033308 l -0.735895,0.803275 v 7.457723 h 5.504745 v -7.457723 l -0.735542,-0.803275"
         style="fill:#3b2314;fill-opacity:1;fill-rule:nonzero;stroke:none;stroke-width:0.0352778"
         id="path66" />
      <path
         d="m 84.995485,78.372107 h -12.29854 c -0.20955,0 -0.381,-0.17145 -0.381,-0.381 v 0 c 0,-0.20955 0.17145,-0.381 0.381,-0.381 h 12.29854 c 0.209197,0 0.380647,0.17145 0.380647,0.381 v 0 c 0,0.20955 -0.17145,0.381 -0.380647,0.381"
         style="fill:#3b2314;fill-opacity:1;fill-rule:nonzero;stroke:none;stroke-width:0.0352778"
         id="path68" />
      <path
         d="m 75.641581,87.285038 c 0,-0.178152 0.145698,-0.32385 0.323498,-0.32385 h 1.205089 c 0.178152,0 0.32385,0.145698 0.32385,0.32385 0,0.1778 -0.145698,0.323498 -0.32385,0.323498 h -1.205089 c -0.1778,0 -0.323498,-0.145698 -0.323498,-0.323498 z m -7.199842,0.477661 h -1.603375 c -0.243064,0 -0.44203,-0.198613 -0.44203,-0.441677 0,-0.243064 0.198966,-0.442031 0.44203,-0.442031 h 1.603375 c 0.242712,0 0.441678,0.198967 0.441678,0.442031 0,0.243064 -0.198966,0.441677 -0.441678,0.441677 z m -1.468614,0.887237 h -0.310091 c -0.146756,0 -0.2667,-0.119592 -0.2667,-0.266348 0,-0.146402 0.119944,-0.266347 0.2667,-0.266347 h 0.310091 c 0.146403,0 0.266348,0.119945 0.266348,0.266347 0,0.146756 -0.119945,0.266348 -0.266348,0.266348 z m 9.160582,1.601258 h 0.428625 l 2.407708,-4.1529 H 65.295667 l 0.545042,0.595136 0.08079,0.08819 v 0.119945 7.457723 h 0.4826 c -0.143934,-0.487539 -0.222956,-1.009651 -0.222956,-1.552928 0,-2.658181 1.868664,-4.820709 4.1656,-4.820709 h 1.838326 c 0.04269,0 0.0822,0.0018 0.120297,0.0032 l 0.0039,3.53e-4 c 0.05045,-0.0025 0.09631,-0.0035 0.140406,-0.0035 1.486253,0 2.792236,0.906286 3.529542,2.265539 h 0.154517"
         style="fill:#3b2314;fill-opacity:1;fill-rule:nonzero;stroke:none;stroke-width:0.0352778"
         id="path70" />
      <path
         d="M 82.436787,81.895652 H 81.94819 c -0.182739,0 -0.331258,-0.148167 -0.331258,-0.330906 v -1.999191 c 0,-0.183092 0.148519,-0.331259 0.331258,-0.331259 h 0.488597 c 0.182739,0 0.331259,0.148167 0.331259,0.331259 v 1.999191 c 0,0.182739 -0.14852,0.330906 -0.331259,0.330906"
         style="fill:#3b2314;fill-opacity:1;fill-rule:nonzero;stroke:none;stroke-width:0.0352778"
         id="path72" />
      <path
         d="m 82.240996,80.539221 -1.913467,1.054453 0.04551,0.3048 1.919817,-1.013531 -0.05186,-0.345722"
         style="fill:#3b2314;fill-opacity:1;fill-rule:nonzero;stroke:none;stroke-width:0.0352778"
         id="path74" />
      <path
         d="M 84.205615,78.126221 H 73.406734 c -0.274461,0 -0.498828,-0.224719 -0.498828,-0.499181 v 0 c 0,-0.274461 0.224367,-0.498827 0.498828,-0.498827 h 10.798881 c 0.274461,0 0.499181,0.224366 0.499181,0.498827 v 0 c 0,0.274462 -0.22472,0.499181 -0.499181,0.499181"
         style="fill:#3b2314;fill-opacity:1;fill-rule:nonzero;stroke:none;stroke-width:0.0352778"
         id="path76" />
      <text
         id="text283"
         style="font-style:normal;font-weight:normal;font-size:2.11667px;line-height:1.25;font-family:sans-serif;fill:#3b2314;fill-opacity:1;stroke:none;stroke-width:0.264583"
         xml:space="preserve"><textPath
           id="textPath1118"
           xlink:href="#path1110"><tspan
             id="tspan281"
             style="font-style:normal;font-variant:normal;font-weight:bold;font-stretch:normal;font-size:2.11667px;font-family:'Montserrat Alternates';-inkscape-font-specification:'Montserrat Alternates Bold';fill:#3b2314;fill-opacity:1;stroke-width:0.264583">Handlowo Techniczne Usługi Rolnicze Sidor i Wspólnik Sp.j</tspan></textPath></text>
      <path
         sodipodi:nodetypes="csc"
         id="path1110"
         d="m 38.073218,104.7374 c 11.212254,-3.61397 23.243196,-4.30113 33.401339,-4.48336 23.917209,-0.429039 43.481723,6.63565 43.481723,6.63565"
         style="fill:none;stroke:none;stroke-width:0.264583px;stroke-linecap:butt;stroke-linejoin:miter;stroke-opacity:1" />
    </g>
  </g>
</svg>
